<svg width="81" height="81" viewBox="0 0 81 81" fill="none" xmlns="http://www.w3.org/2000/svg">
<rect width="81" height="81" fill="#1E1E1E"/>
<rect width="81" height="81" fill="#D9D9D9"/>
<rect width="81" height="9" fill="black"/>
<rect y="72" width="81" height="9" fill="black"/>
<rect width="9" height="79" fill="black"/>
<rect x="72" width="9" height="79" fill="black"/>
<rect x="9" y="9" width="9" height="9" fill="#00FF22"/>
<rect x="63" y="63" width="9" height="9" fill="#FF0000"/>
<rect x="18" y="9" width="9" height="9" fill="black"/>
<rect x="18" y="54" width="9" height="9" fill="black"/>
<rect x="63" y="18" width="9" height="9" fill="black"/>
<rect x="54" y="36" width="9" height="9" fill="black"/>
<rect x="54" y="45" width="9" height="9" fill="black"/>
<rect x="54" y="18" width="9" height="9" fill="black"/>
<rect x="54" y="54" width="9" height="9" fill="black"/>
<rect x="45" y="54" width="9" height="9" fill="black"/>
<rect x="27" y="54" width="9" height="9" fill="black"/>
<rect x="36" y="54" width="9" height="9" fill="black"/>
<rect x="9" y="36" width="9" height="9" fill="black"/>
<rect x="18" y="36" width="9" height="9" fill="black"/>
<rect x="36" y="45" width="9" height="9" fill="black"/>
<rect x="36" y="36" width="9" height="9" fill="black"/>
<rect x="36" y="27" width="9" height="9" fill="black"/>
<rect x="36" y="18" width="9" height="9" fill="black"/>
<rect x="27" y="18" width="9" height="9" fill="black"/>
<rect x="18" y="18" width="9" height="9" fill="black"/>
</svg>
